<svg width="40" height="40" viewBox="0 0 40 40" fill="none" xmlns="http://www.w3.org/2000/svg">
<path d="M-1.74846e-06 20C-2.21217e-06 14.6957 2.10713 9.60859 5.85786 5.85787C9.60859 2.10714 14.6957 2.21217e-06 20 1.74846e-06C25.3043 1.28474e-06 30.3914 2.10714 34.1421 5.85786C37.8929 9.60859 40 14.6957 40 20C40 25.3043 37.8929 30.3914 34.1421 34.1421C30.3914 37.8929 25.3043 40 20 40C14.6957 40 9.60859 37.8929 5.85786 34.1421C2.10713 30.3914 -1.28474e-06 25.3043 -1.74846e-06 20ZM18.75 28.75C18.75 29.0815 18.8817 29.3995 19.1161 29.6339C19.3505 29.8683 19.6685 30 20 30C20.3315 30 20.6495 29.8683 20.8839 29.6339C21.1183 29.3995 21.25 29.0815 21.25 28.75L21.25 14.2675L26.615 19.635C26.8497 19.8697 27.1681 20.0016 27.5 20.0016C27.8319 20.0016 28.1503 19.8697 28.385 19.635C28.6197 19.4003 28.7516 19.0819 28.7516 18.75C28.7516 18.4181 28.6197 18.0997 28.385 17.865L20.885 10.365C20.7689 10.2486 20.6309 10.1562 20.4791 10.0932C20.3272 10.0302 20.1644 9.99777 20 9.99777C19.8356 9.99777 19.6728 10.0302 19.5209 10.0932C19.3691 10.1562 19.2311 10.2486 19.115 10.365L11.615 17.865C11.3803 18.0997 11.2484 18.4181 11.2484 18.75C11.2484 19.0819 11.3803 19.4003 11.615 19.635C11.8497 19.8697 12.1681 20.0016 12.5 20.0016C12.8319 20.0016 13.1503 19.8697 13.385 19.635L18.75 14.2675L18.75 28.75Z" fill="#757575"/>
</svg>
