<svg width="25" height="80" viewBox="0 0 25 80" fill="none" xmlns="http://www.w3.org/2000/svg">
<rect width="25" height="80" fill="#555555" fill-opacity="0.3"/>
<g clip-path="url(#clip0_167_3373)">
<g filter="url(#filter0_d_167_3373)">
<path d="M17.172 51.9999C16.9068 51.9999 16.6525 51.8945 16.465 51.7069L8.29303 43.5349C7.35568 42.5973 6.8291 41.3257 6.8291 39.9999C6.8291 38.6741 7.35568 37.4026 8.29303 36.4649L16.465 28.2929C16.6536 28.1108 16.9062 28.01 17.1684 28.0122C17.4306 28.0145 17.6814 28.1197 17.8669 28.3051C18.0523 28.4905 18.1574 28.7413 18.1597 29.0035C18.162 29.2657 18.0612 29.5183 17.879 29.7069L9.70703 37.8789C9.14462 38.4415 8.82867 39.2044 8.82867 39.9999C8.82867 40.7954 9.14462 41.5583 9.70703 42.1209L17.879 50.2929C18.0188 50.4328 18.1141 50.6109 18.1526 50.8049C18.1912 50.9988 18.1714 51.1999 18.0957 51.3826C18.02 51.5653 17.8919 51.7214 17.7275 51.8313C17.5631 51.9412 17.3698 51.9999 17.172 51.9999Z" fill="white"/>
</g>
</g>
<defs>
<filter id="filter0_d_167_3373" x="2.8291" y="28.0122" width="19.3428" height="31.9878" filterUnits="userSpaceOnUse" color-interpolation-filters="sRGB">
<feFlood flood-opacity="0" result="BackgroundImageFix"/>
<feColorMatrix in="SourceAlpha" type="matrix" values="0 0 0 0 0 0 0 0 0 0 0 0 0 0 0 0 0 0 127 0" result="hardAlpha"/>
<feOffset dy="4"/>
<feGaussianBlur stdDeviation="2"/>
<feComposite in2="hardAlpha" operator="out"/>
<feColorMatrix type="matrix" values="0 0 0 0 0 0 0 0 0 0 0 0 0 0 0 0 0 0 0.25 0"/>
<feBlend mode="normal" in2="BackgroundImageFix" result="effect1_dropShadow_167_3373"/>
<feBlend mode="normal" in="SourceGraphic" in2="effect1_dropShadow_167_3373" result="shape"/>
</filter>
<clipPath id="clip0_167_3373">
<rect width="24" height="24" fill="white" transform="translate(0 28)"/>
</clipPath>
</defs>
</svg>
