<svg width="24" height="34" viewBox="0 0 24 34" fill="none" xmlns="http://www.w3.org/2000/svg">
<path d="M20 33.6667C21.8383 33.6667 23.3333 32.1717 23.3333 30.3333V3.66667C23.3333 1.82834 21.8383 0.333336 20 0.333336H3.33333C1.495 0.333336 0 1.82834 0 3.66667V30.3333C0 32.1717 1.495 33.6667 3.33333 33.6667H20ZM11.6667 25.3333C12.1087 25.3333 12.5326 25.5089 12.8452 25.8215C13.1577 26.1341 13.3333 26.558 13.3333 27C13.3333 27.442 13.1577 27.866 12.8452 28.1785C12.5326 28.4911 12.1087 28.6667 11.6667 28.6667C11.2246 28.6667 10.8007 28.4911 10.4882 28.1785C10.1756 27.866 10 27.442 10 27C10 26.558 10.1756 26.1341 10.4882 25.8215C10.8007 25.5089 11.2246 25.3333 11.6667 25.3333Z" fill="#1A5D54"/>
</svg>
